<svg xmlns="http://www.w3.org/2000/svg" viewBox="0 0 24 24" width="24" height="24" role="img" aria-label="JSON file">
  <path d="M6 3h8l4 4v14H6V3Z" fill="#fff7dc"/>
  <path d="M14 3v4h4" fill="#e4b94b"/>
  <path d="M10 10.2c-1.1 0-1.6.5-1.6 1.5v.7c0 .5-.2.8-.7.8.5 0 .7.3.7.8v.8c0 1 .5 1.5 1.6 1.5M14 10.2c1.1 0 1.6.5 1.6 1.5v.7c0 .5.2.8.7.8-.5 0-.7.3-.7.8v.8c0 1-.5 1.5-1.6 1.5" fill="none" stroke="#8c6a12" stroke-width="1.3" stroke-linecap="round"/>
  <circle cx="12" cy="13.2" r=".8" fill="#8c6a12"/>
</svg>
