<svg xmlns="http://www.w3.org/2000/svg" viewBox="0 0 24 24" width="24" height="24" role="img" aria-label="PDF file">
  <path d="M6 3h8l4 4v14H6V3Z" fill="#f8e9e7"/>
  <path d="M14 3v4h4" fill="#e36a5b"/>
  <rect x="5" y="11" width="14" height="6" rx="1.4" fill="#c43c35"/>
  <path d="M7.2 15.5v-3h1.3c.8 0 1.3.4 1.3 1.1s-.5 1.1-1.3 1.1h-.4v.8h-.9Zm.9-1.5h.3c.3 0 .5-.1.5-.4s-.2-.4-.5-.4h-.3v.8Zm2.2 1.5v-3h1.2c1 0 1.7.5 1.7 1.5s-.7 1.5-1.7 1.5h-1.2Zm.9-.7h.2c.5 0 .8-.2.8-.8s-.3-.8-.8-.8h-.2v1.6Zm2.5.7v-3h2.2v.7h-1.3v.5h1.1v.7h-1.1v1.1h-.9Z" fill="#fff8f5"/>
</svg>
