<svg xmlns="http://www.w3.org/2000/svg" viewBox="0 0 24 24" width="24" height="24" role="img" aria-label="Presentation file">
  <path d="M6 3h8l4 4v14H6V3Z" fill="#fff0e7"/>
  <path d="M14 3v4h4" fill="#f09a5a"/>
  <rect x="5" y="11" width="14" height="7" rx="1.4" fill="#d96b35"/>
  <path d="M8 16v-3h1.4c.8 0 1.3.4 1.3 1.1s-.5 1.1-1.3 1.1h-.5v.8H8Zm.9-1.5h.4c.3 0 .5-.1.5-.4s-.2-.4-.5-.4h-.4v.8Z" fill="#fff8f2"/>
  <path d="M12 15.7h3.9M12.6 15.7v-1.8m1.2 1.8v-2.6m1.2 2.6v-1.2" stroke="#fff8f2" stroke-width="1" stroke-linecap="round"/>
</svg>
